<svg xmlns="http://www.w3.org/2000/svg" viewBox="0 0 32 32">
  <!-- Background -->
  <rect width="32" height="32" rx="3" fill="#0a0a0a"/>
  <!-- Corner pieces - Top Left -->
  <path d="M6.4 11.2 L6.4 6.4 L11.2 6.4" stroke="#DBD6CC" stroke-width="1" fill="none"/>
  <!-- Corner pieces - Top Right -->
  <path d="M20.8 6.4 L25.6 6.4 L25.6 11.2" stroke="#DBD6CC" stroke-width="1" fill="none"/>
  <!-- Corner pieces - Bottom Right -->
  <path d="M25.6 20.8 L25.6 25.6 L20.8 25.6" stroke="#DBD6CC" stroke-width="1" fill="none"/>
  <!-- Corner pieces - Bottom Left -->
  <path d="M11.2 25.6 L6.4 25.6 L6.4 20.8" stroke="#DBD6CC" stroke-width="1" fill="none"/>
  <!-- D letter -->
  <path d="M10.5 13.4 L10.5 18.6 L12.2 18.6 C13.9 18.6 15 17.5 15 16 C15 14.5 13.9 13.4 12.2 13.4 Z M11.5 14.4 L12.2 14.4 C13.3 14.4 14 15 14 16 C14 17 13.3 17.6 12.2 17.6 L11.5 17.6 Z" fill="#DBD6CC"/>
  <!-- T letter -->
  <path d="M16.5 13.4 L16.5 14.4 L18.2 14.4 L18.2 18.6 L19.2 18.6 L19.2 14.4 L21 14.4 L21 13.4 Z" fill="#DBD6CC"/>
</svg>
